<svg width="63" height="24" viewBox="0 0 63 24" fill="none" xmlns="http://www.w3.org/2000/svg">
<path fill-rule="evenodd" clip-rule="evenodd" d="M17.3102 10.5463C18.7925 8.21574 20.6982 7.42125 22.2333 7.42125C23.9802 7.42125 25.886 8.58652 25.1448 12.2413L22.9215 23.5233H16.8338L18.5278 14.9426C18.7395 13.7773 18.369 13.1947 17.7337 13.1947C17.0985 13.1947 16.4103 13.6714 16.1986 14.9426L14.5046 23.5233L8.41692 23.5233L10.1109 14.9426C10.3226 13.7773 9.95205 13.1947 9.31681 13.1947C8.68158 13.1947 7.99342 13.6714 7.78167 14.9426L6.0877 23.5233H0L3.07031 7.84499L9.15801 7.84499L8.62865 10.5463H8.89333C10.3756 8.21574 12.2813 7.42125 13.8164 7.42125C15.2457 7.42125 16.7809 8.21574 16.8868 10.5463H17.0456H17.3102ZM33.7206 7.84499L27.6329 7.84499L24.5626 23.5233H30.6503L33.7206 7.84499ZM39.3318 24C36.685 24 33.9323 23.2055 32.1325 21.5105L34.8852 17.485C37.9555 19.6037 40.6552 19.2859 40.6552 18.5444C40.6552 18.0677 39.8612 17.7499 38.8554 17.3791C37.0026 16.6905 34.4087 15.7371 34.4087 12.718C34.4087 9.22214 38.1672 7.36827 41.2376 7.36827C43.6197 7.36827 45.5783 8.10981 47.4841 9.48696L44.8372 13.4065C41.9787 11.4468 39.5965 11.8175 39.5965 12.665C39.5965 12.9298 40.1788 13.1417 40.9729 13.4065C42.8786 14.0951 46.0018 15.1545 46.0018 18.3855C46.0018 21.1398 43.5138 24 39.3318 24ZM59.9241 7.42125C58.389 7.42125 56.4833 8.26871 55.0011 10.5463H54.7364L56.5892 1.22408L50.5015 1.22408L46.1077 23.5233H52.1954L53.8894 14.9426C54.1541 13.6714 54.7893 13.1947 55.4245 13.1947C56.0598 13.1947 56.4303 13.7773 56.2186 14.9426L54.5246 23.5233L60.6123 23.5233L62.8357 12.2413C63.5768 8.58652 61.6711 7.42125 59.9241 7.42125ZM35.1499 1.75375C34.4617 0.164734 32.2913 -0.47086 30.3326 0.376616C28.374 1.22409 27.3153 3.18387 28.0034 4.77289C28.6916 6.36191 30.862 6.9975 32.8206 6.15003C34.7793 5.30255 35.838 3.34277 35.1499 1.75375Z" fill="white"/>
</svg>
